<svg width="24" height="25" viewBox="0 0 24 25" fill="none" xmlns="http://www.w3.org/2000/svg">
<mask id="path-1-inside-1_1898_7830" fill="white">
<path fill-rule="evenodd" clip-rule="evenodd" d="M21.4708 12.7541C21.4708 12.2218 21.4219 11.678 21.3226 11.1342L24 8.8136L21.4593 4.47168L18.0813 5.59817C17.2282 4.89034 16.2556 4.33212 15.2298 3.96238L14.5335 0.525391H9.46648L8.77018 3.96096C7.7329 4.33212 6.77762 4.8817 5.91729 5.59673L2.54071 4.47168L0 8.8136L2.67738 11.1342C2.5781 11.678 2.52919 12.2218 2.52919 12.7541C2.52919 13.2864 2.5781 13.8303 2.67737 14.3741L0 16.6947L2.5407 21.0366L5.91871 19.9101C6.77185 20.6179 7.74439 21.1762 8.77018 21.5459L9.46648 24.9829H14.5335L15.2298 21.5473C16.2657 21.1762 17.2224 20.6266 18.0827 19.9115L21.4593 21.038L24 16.6961L21.3226 14.3755C21.4219 13.8303 21.4708 13.2864 21.4708 12.7541M12 17.7895C9.22334 17.7895 6.96462 15.5308 6.96462 12.7541C6.96462 9.9775 9.22334 7.71877 12 7.71877C14.7766 7.71877 17.0353 9.9775 17.0353 12.7541C17.0353 15.5308 14.7766 17.7895 12 17.7895Z"/>
</mask>
<path d="M21.3226 11.1342L20.5795 10.2769L20.0902 10.7009L20.2065 11.3379L21.3226 11.1342ZM24 8.8136L24.7431 9.67093L25.4551 9.05382L24.9792 8.24061L24 8.8136ZM21.4593 4.47168L22.4385 3.89869L21.9736 3.10421L21.1004 3.39541L21.4593 4.47168ZM18.0813 5.59817L17.3569 6.47131L17.8421 6.8739L18.4402 6.67444L18.0813 5.59817ZM15.2298 3.96238L14.1179 4.18766L14.2446 4.81326L14.8451 5.02971L15.2298 3.96238ZM14.5335 0.525391L15.6455 0.300116L15.4613 -0.609153H14.5335V0.525391ZM9.46648 0.525391V-0.609153H8.53881L8.35454 0.30003L9.46648 0.525391ZM8.77018 3.96096L9.15242 5.02917L9.75499 4.81355L9.88211 4.18632L8.77018 3.96096ZM5.91729 5.59673L5.55865 6.6731L6.15723 6.87254L6.64246 6.46926L5.91729 5.59673ZM2.54071 4.47168L2.89935 3.39532L2.02627 3.10441L1.5615 3.89869L2.54071 4.47168ZM0 8.8136L-0.979215 8.24061L-1.45508 9.05382L-0.743081 9.67093L0 8.8136ZM2.67738 11.1342L3.79348 11.3379L3.90977 10.701L3.42046 10.2769L2.67738 11.1342ZM2.67737 14.3741L3.42045 15.2314L3.90974 14.8073L3.79347 14.1704L2.67737 14.3741ZM0 16.6947L-0.743083 15.8373L-1.45507 16.4545L-0.979217 17.2677L0 16.6947ZM2.5407 21.0366L1.56148 21.6096L2.02638 22.4041L2.89961 22.1129L2.5407 21.0366ZM5.91871 19.9101L6.64315 19.037L6.15792 18.6344L5.5598 18.8338L5.91871 19.9101ZM8.77018 21.5459L9.88213 21.3206L9.75539 20.695L9.15489 20.4786L8.77018 21.5459ZM9.46648 24.9829L8.35452 25.2082L8.53873 26.1174H9.46648V24.9829ZM14.5335 24.9829V26.1174H15.4612L15.6454 25.2082L14.5335 24.9829ZM15.2298 21.5473L14.8471 20.4793L14.2449 20.695L14.1179 21.322L15.2298 21.5473ZM18.0827 19.9115L18.4418 18.8353L17.843 18.6356L17.3575 19.039L18.0827 19.9115ZM21.4593 21.038L21.1002 22.1143L21.9735 22.4056L22.4385 21.611L21.4593 21.038ZM24 16.6961L24.9792 17.2691L25.4551 16.4559L24.7431 15.8388L24 16.6961ZM21.3226 14.3755L20.2064 14.1723L20.0905 14.809L20.5795 15.2329L21.3226 14.3755ZM22.6053 12.7541C22.6053 12.1526 22.5501 11.5406 22.4387 10.9305L20.2065 11.3379C20.2937 11.8154 20.3363 12.291 20.3363 12.7541H22.6053ZM22.0657 11.9915L24.7431 9.67093L23.2569 7.95627L20.5795 10.2769L22.0657 11.9915ZM24.9792 8.24061L22.4385 3.89869L20.4801 5.04468L23.0208 9.3866L24.9792 8.24061ZM21.1004 3.39541L17.7224 4.52189L18.4402 6.67444L21.8182 5.54796L21.1004 3.39541ZM18.8057 4.72502C17.8534 3.93488 16.7663 3.3102 15.6145 2.89506L14.8451 5.02971C15.7449 5.35404 16.6029 5.8458 17.3569 6.47131L18.8057 4.72502ZM16.3418 3.73711L15.6455 0.300116L13.4216 0.750665L14.1179 4.18766L16.3418 3.73711ZM14.5335 -0.609153H9.46648V1.65993H14.5335V-0.609153ZM8.35454 0.30003L7.65824 3.73559L9.88211 4.18632L10.5784 0.750751L8.35454 0.30003ZM8.38794 2.89274C7.22227 3.30985 6.15153 3.92682 5.19212 4.72419L6.64246 6.46926C7.40371 5.83659 8.24352 5.3544 9.15242 5.02917L8.38794 2.89274ZM6.27592 4.52036L2.89935 3.39532L2.18208 5.54805L5.55865 6.6731L6.27592 4.52036ZM1.5615 3.89869L-0.979215 8.24061L0.979215 9.3866L3.51993 5.04468L1.5615 3.89869ZM-0.743081 9.67093L1.9343 11.9915L3.42046 10.2769L0.743081 7.95627L-0.743081 9.67093ZM1.56129 10.9304C1.44988 11.5406 1.39464 12.1526 1.39464 12.7541H3.66373C3.66373 12.291 3.70632 11.8154 3.79348 11.3379L1.56129 10.9304ZM1.39464 12.7541C1.39464 13.3556 1.44988 13.9676 1.56127 14.5778L3.79347 14.1704C3.70632 13.6929 3.66373 13.2173 3.66373 12.7541H1.39464ZM1.93429 13.5168L-0.743083 15.8373L0.743083 17.552L3.42045 15.2314L1.93429 13.5168ZM-0.979217 17.2677L1.56148 21.6096L3.51992 20.4636L0.979217 16.1217L-0.979217 17.2677ZM2.89961 22.1129L6.27763 20.9864L5.5598 18.8338L2.18179 19.9603L2.89961 22.1129ZM5.19428 20.7833C6.14662 21.5734 7.23371 22.1981 8.38546 22.6132L9.15489 20.4786C8.25507 20.1542 7.39707 19.6625 6.64315 19.037L5.19428 20.7833ZM7.65822 21.7712L8.35452 25.2082L10.5784 24.7576L9.88213 21.3206L7.65822 21.7712ZM9.46648 26.1174H14.5335V23.8483H9.46648V26.1174ZM15.6454 25.2082L16.3417 21.7727L14.1179 21.322L13.4216 24.7575L15.6454 25.2082ZM15.6125 22.6154C16.776 22.1985 17.8481 21.5817 18.8079 20.7841L17.3575 19.039C16.5966 19.6714 15.7553 20.1538 14.8471 20.4793L15.6125 22.6154ZM17.7237 20.9878L21.1002 22.1143L21.8183 19.9618L18.4418 18.8353L17.7237 20.9878ZM22.4385 21.611L24.9792 17.2691L23.0208 16.1231L20.4801 20.465L22.4385 21.611ZM24.7431 15.8388L22.0657 13.5182L20.5795 15.2329L23.2569 17.5534L24.7431 15.8388ZM22.4388 14.5787C22.5501 13.9675 22.6053 13.3557 22.6053 12.7541H20.3362C20.3362 13.2172 20.2937 13.693 20.2064 14.1723L22.4388 14.5787ZM12 16.655C9.84993 16.655 8.09916 14.9042 8.09916 12.7541H5.83007C5.83007 16.1574 8.59675 18.924 12 18.924V16.655ZM8.09916 12.7541C8.09916 10.6041 9.84993 8.85332 12 8.85332V6.58423C8.59675 6.58423 5.83007 9.35091 5.83007 12.7541H8.09916ZM12 8.85332C14.15 8.85332 15.9008 10.6041 15.9008 12.7541H18.1699C18.1699 9.35091 15.4032 6.58423 12 6.58423V8.85332ZM15.9008 12.7541C15.9008 14.9042 14.15 16.655 12 16.655V18.924C15.4032 18.924 18.1699 16.1574 18.1699 12.7541H15.9008Z" fill="black" mask="url(#path-1-inside-1_1898_7830)"/>
</svg>
