<svg width="27" height="27" viewBox="0 0 27 27" fill="none" xmlns="http://www.w3.org/2000/svg">
<path d="M2.6075 16.0701V16.6042L2.61712 16.6043V25.4762H0.585454V15.1729C0.585454 13.0269 2.33938 11.2649 4.49345 11.2649H5.24791L7.70403 15.1013L8.52974 16.391L8.69571 14.8686L9.02732 11.827L9.33971 14.8466L9.49815 16.3782L10.3311 15.0832L12.787 11.2649H13.3894C15.5355 11.2649 17.2974 13.0188 17.2974 15.1729V25.4761H15.2658V16.0701C15.2658 15.8106 15.1781 15.5517 14.9806 15.3572C14.7844 15.164 14.5277 15.0815 14.2771 15.0815C14.0176 15.0815 13.7587 15.1691 13.5642 15.3666C13.371 15.5628 13.2885 15.8195 13.2885 16.0701V25.4761H4.58479V16.0701C4.58479 15.8188 4.50454 15.5586 4.30612 15.3601C4.1077 15.1617 3.84746 15.0815 3.59614 15.0815C3.33668 15.0815 3.07777 15.1691 2.88327 15.3666C2.69005 15.5628 2.6075 15.8195 2.6075 16.0701ZM8.99139 11.5384L8.87341 11.2553H9.18136L9.06338 11.5384L9.02739 11.6248L8.99139 11.5384ZM8.88427 3.26603C10.5523 3.26603 11.9046 4.61831 11.9046 6.28635C11.9046 7.95438 10.5523 9.30666 8.88427 9.30666C7.21623 9.30666 5.86395 7.95438 5.86395 6.28635C5.86395 4.6183 7.21614 3.26603 8.88427 3.26603ZM23.2615 3.02472H24.6416V4.40478H23.2615V3.02472Z" stroke="black" stroke-width="1.08009"/>
</svg>
