<svg width="21" height="23" viewBox="0 0 21 23" fill="none" xmlns="http://www.w3.org/2000/svg">
<path d="M14.8215 12.6229C16.4835 13.4075 17.9005 14.6295 18.9208 16.1582C19.9411 17.6868 20.526 19.4643 20.613 21.3C20.6246 21.4682 20.6024 21.637 20.5479 21.7965C20.4934 21.956 20.4075 22.1029 20.2954 22.2288C20.1833 22.3547 20.0472 22.4569 19.8951 22.5294C19.7429 22.602 19.5778 22.6434 19.4094 22.6513C19.2411 22.6591 19.0728 22.6333 18.9146 22.5752C18.7563 22.5172 18.6113 22.4281 18.4879 22.3133C18.3645 22.1984 18.2654 22.0601 18.1962 21.9064C18.127 21.7527 18.0893 21.5867 18.0851 21.4182C17.9931 19.4683 17.1538 17.6288 15.7413 16.2814C14.3289 14.934 12.4518 14.1823 10.4998 14.1823C8.54777 14.1823 6.67071 14.934 5.25826 16.2814C3.84582 17.6288 3.00648 19.4683 2.91449 21.4182C2.89176 21.7482 2.7407 22.0562 2.49366 22.2763C2.24662 22.4963 1.92325 22.6109 1.59278 22.5954C1.26231 22.58 0.951029 22.4358 0.725588 22.1937C0.500146 21.9515 0.37847 21.6308 0.386615 21.3C0.473402 19.4645 1.05812 17.6871 2.07808 16.1585C3.09804 14.6299 4.51478 13.4077 6.17643 12.6229C5.11164 11.7348 4.34627 10.5402 3.98445 9.20164C3.62263 7.8631 3.68191 6.4456 4.15424 5.14195C4.62656 3.8383 5.489 2.71179 6.62423 1.91564C7.75946 1.1195 9.11238 0.692383 10.499 0.692383C11.8855 0.692383 13.2385 1.1195 14.3737 1.91564C15.5089 2.71179 16.3714 3.8383 16.8437 5.14195C17.316 6.4456 17.3753 7.8631 17.0135 9.20164C16.6516 10.5402 15.8863 11.7348 14.8215 12.6229ZM14.7186 7.43723C14.7186 6.31835 14.2741 5.24529 13.4829 4.45412C12.6917 3.66296 11.6187 3.21848 10.4998 3.21848C9.38092 3.21848 8.30786 3.66296 7.5167 4.45412C6.72553 5.24529 6.28105 6.31835 6.28105 7.43723C6.28105 8.55611 6.72553 9.62917 7.5167 10.4203C8.30786 11.2115 9.38092 11.656 10.4998 11.656C11.6187 11.656 12.6917 11.2115 13.4829 10.4203C14.2741 9.62917 14.7186 8.55611 14.7186 7.43723Z" fill="black"/>
</svg>
