<svg width="25" height="31" viewBox="0 0 25 31" fill="none" xmlns="http://www.w3.org/2000/svg">
<path fill-rule="evenodd" clip-rule="evenodd" d="M5.95338 5.44966H14.3135C14.907 5.44966 14.8758 5.68996 14.8229 6.30273L14.4865 10.6065C14.4288 11.2914 14.4769 11.1256 13.7512 11.2313L7.7941 11.7576L8.14734 12.7837C11.0454 12.7837 11.723 12.7837 14.6187 12.7837C14.7172 13.1489 14.8494 13.7401 14.9455 14.1462H13.7512L13.6358 13.7305C11.2232 13.7305 11.0238 13.7305 8.60872 13.7305C7.28946 13.7088 7.42163 14.0645 7.10683 12.9255L4.84078 5.18773H4.1415V4.22412H5.66021C5.74913 4.55574 5.87168 5.11564 5.95338 5.44966ZM16.8487 0.775787C16.7429 0.679666 16.594 0.617188 16.4474 0.617188C16.4161 0.617188 16.3849 0.617188 16.3513 0.6268H1.79856C1.44051 0.6268 1.10168 0.775787 0.858978 1.01849C0.616272 1.2612 0.467285 1.58801 0.467285 1.95807V28.8142C0.467285 29.1843 0.616272 29.5111 0.858978 29.7538C1.10168 29.9965 1.42849 30.1455 1.79856 30.1455H22.6472C23.0172 30.1455 23.344 29.9965 23.5867 29.7538C23.8295 29.5111 23.9784 29.1843 23.9784 28.8142V8.37894C23.9881 8.32608 24.0001 8.28282 24.0001 8.22996C24.0001 8.04973 23.916 7.89113 23.7982 7.77579L16.9208 0.816638C16.8991 0.795011 16.8895 0.785399 16.8679 0.773384L16.8487 0.775787ZM16.3753 1.8211V6.49738C16.3753 6.9948 16.5771 7.44898 16.9039 7.77579C17.2308 8.1026 17.6849 8.30445 18.1824 8.30445H22.7625V28.8166C22.7625 28.8479 22.7529 28.8911 22.7193 28.9128C22.6976 28.9344 22.6664 28.956 22.6231 28.956H1.78654C1.7553 28.956 1.71205 28.9464 1.69042 28.9128C1.6688 28.8911 1.64717 28.8503 1.64717 28.8166V1.95807C1.64717 1.91482 1.65678 1.88358 1.69042 1.86195C1.71205 1.84033 1.74329 1.8187 1.78654 1.8187H16.3753V1.8211ZM17.5672 6.49738V2.7727L21.8422 7.11015H18.18C18.0117 7.11015 17.8628 7.03566 17.7474 6.92992C17.6417 6.82419 17.5672 6.66559 17.5672 6.49738ZM5.39828 17.15C5.07147 17.15 4.79753 17.4143 4.79753 17.7531C4.79753 18.0799 5.06186 18.3563 5.39828 18.3563H18.8864C19.2132 18.3563 19.4896 18.092 19.4896 17.7531C19.4896 17.4263 19.2253 17.15 18.8864 17.15H5.39828ZM5.62417 24.4984C5.29736 24.4984 5.02101 24.7627 5.02101 25.1016C5.02101 25.4284 5.28534 25.7023 5.62417 25.7023H19.0234C19.3502 25.7023 19.6266 25.438 19.6266 25.0992C19.6266 24.7724 19.3622 24.4984 19.0234 24.4984H5.62417ZM5.39828 21.0573C5.07147 21.0573 4.79753 21.3216 4.79753 21.658C4.79753 21.9848 5.06186 22.2588 5.39828 22.2588H19.0234C19.3502 22.2588 19.6242 21.9945 19.6242 21.658C19.6242 21.3312 19.3598 21.0573 19.0234 21.0573H5.39828ZM9.93999 7.11976H10.2764C10.3365 7.11976 10.387 7.17023 10.387 7.2303V8.52313H11.5668C11.6293 8.52313 11.6774 8.57359 11.6774 8.63367V8.97009C11.6774 9.03257 11.6269 9.08303 11.5668 9.08303H9.82945V7.2327C9.82705 7.17023 9.87751 7.11976 9.93999 7.11976ZM10.3846 6.10088C11.6774 6.10088 12.7275 7.151 12.7275 8.44383C12.7275 9.73665 11.6798 10.7868 10.3846 10.7868C9.09173 10.7868 8.04161 9.73905 8.04161 8.44383C8.04161 7.1486 9.08932 6.10088 10.3846 6.10088ZM8.61593 14.6292C9.12537 14.6292 9.53869 15.0425 9.53869 15.552C9.53869 16.0614 9.12537 16.4747 8.61593 16.4747C8.10649 16.4747 7.69317 16.0614 7.69317 15.552C7.69317 15.0401 8.10649 14.6292 8.61593 14.6292ZM12.4223 14.6292C12.9318 14.6292 13.3451 15.0425 13.3451 15.552C13.3451 16.0614 12.9318 16.4747 12.4223 16.4747C11.9129 16.4747 11.4996 16.0614 11.4996 15.552C11.4996 15.0401 11.9105 14.6292 12.4223 14.6292Z" fill="black" stroke="black" stroke-width="0.369104"/>
</svg>
