<svg width="140" height="69" viewBox="0 0 140 69" fill="none" xmlns="http://www.w3.org/2000/svg">
<path d="M77.6353 1.03439C78.4722 0.699412 79.3078 0.357068 80.136 0C80.9582 1.81356 81.3938 3.89339 80.9005 5.8591C80.4354 7.7512 78.7544 9.37334 76.7764 9.52918C75.6058 9.69605 74.5113 9.09235 73.5493 8.49969C73.3837 8.6592 73.2192 8.81995 73.056 8.98069C72.6977 9.33898 72.2732 9.62856 71.8155 9.84207C71.586 9.93778 71.3566 10.0286 71.1235 10.1083C70.6866 10.209 70.2363 10.2261 69.7921 10.1905C69.7148 10.1832 69.5578 10.1672 69.4804 10.1586C68.6387 10.0408 67.8473 9.52918 67.4558 8.76596C66.8583 7.43217 66.9932 5.88733 67.446 4.53022C67.6644 3.83572 67.9479 3.1633 68.2289 2.49089C68.5994 2.39395 68.9725 2.3007 69.3442 2.20499C69.4817 2.16818 69.6228 2.13136 69.7627 2.09578C70.0498 2.02093 70.3431 1.97062 70.64 1.94731C70.6351 2.16695 70.6609 2.39518 70.5664 2.60009C70.1774 3.54737 69.9111 4.5744 69.9737 5.60388C69.9774 6.02721 70.3701 6.2628 70.7198 6.39409C70.9149 6.39777 71.1136 6.39655 71.3112 6.38182C72.2536 5.96095 72.7934 4.97809 73.0843 4.03327C73.2413 3.51301 73.3235 2.97311 73.3812 2.43322C74.0107 2.20621 74.6438 1.98535 75.2794 1.77184C75.4794 1.66632 75.6402 1.88596 75.8132 1.95467L75.8525 2.04302C75.7887 3.12649 75.7077 4.21242 75.4807 5.27626C76.1604 5.58302 76.9605 5.89224 77.6856 5.54008C78.0857 5.36952 78.2685 4.91919 78.2599 4.50691C78.2611 3.3265 78.1507 2.11173 77.6353 1.03439Z" fill="#30353E"/>
<path d="M121.747 9.84375C123.223 11.5751 124.657 13.3433 126.117 15.0881C124.26 16.682 122.355 18.222 120.499 19.8171C118.994 18.0907 117.546 16.3164 116.061 14.5752C117.951 12.9936 119.874 11.4475 121.747 9.84375Z" fill="#30353E"/>
<path d="M60.3739 15.2197C62.1924 15.2136 64.0109 15.2198 65.8293 15.2173C65.9263 15.2173 66.1202 15.2173 66.2171 15.2173C66.6232 15.2173 67.0294 15.2185 67.4368 15.2161C67.53 15.2161 67.7165 15.2148 67.8085 15.2148C67.7803 19.577 67.7398 23.9403 67.7006 28.3037C67.6993 28.3564 67.6969 28.4619 67.6957 28.5147C67.6981 28.8485 67.6981 29.1847 67.7055 29.5196C67.6699 29.727 67.6674 29.9393 67.6858 30.1491C67.6908 30.4522 67.6895 30.754 67.6993 31.0571C67.6613 32.1345 67.6539 33.2143 67.6711 34.2928C67.6699 34.4008 67.6687 34.51 67.6687 34.6204C67.622 35.5873 67.6539 36.5567 67.6171 37.5236C67.6662 37.4782 67.7632 37.3874 67.811 37.342C68.0871 37.1248 68.373 36.9211 68.6491 36.7052C68.762 36.6144 68.8785 36.5248 68.9951 36.4365C69.8135 35.8082 70.659 35.2156 71.5019 34.6192C71.7007 34.4806 71.9032 34.3444 72.1032 34.2057C72.567 33.9051 73.0308 33.6032 73.4946 33.3014C74.1585 32.8866 74.8272 32.4793 75.5008 32.0805C75.8947 31.878 76.2825 31.6645 76.6714 31.4535C77.3242 31.1369 77.977 30.8154 78.6543 30.5565C78.9402 30.4559 79.2261 30.3589 79.5145 30.2645C79.7795 30.1798 80.0495 30.1111 80.3219 30.0473C80.463 30.0129 80.609 29.9798 80.755 29.9528C81.5391 29.8068 82.3428 29.8055 83.133 29.9013C83.2361 29.9184 83.4422 29.9503 83.5453 29.9663C83.6766 29.9933 83.8079 30.0227 83.9429 30.0534C84.1147 30.0939 84.2815 30.1344 84.457 30.1822C84.6607 30.2473 84.8607 30.3258 85.0619 30.4043C85.23 30.4718 85.4006 30.5393 85.5687 30.6154C86.2448 30.9516 86.8779 31.37 87.4547 31.8584C87.943 32.2977 88.3676 32.8057 88.8093 33.2928C89.0928 33.6805 89.3836 34.0646 89.6523 34.4646C89.7811 34.6695 89.9026 34.8806 90.0278 35.0904C90.9615 36.5776 91.5873 38.2304 92.0953 39.9041C92.1039 39.9519 92.1235 40.0464 92.1333 40.0943C92.1726 40.3041 92.2413 40.5065 92.299 40.7127C92.3297 40.8243 92.3898 41.0477 92.4205 41.1593C92.5469 41.6587 92.6279 42.1692 92.7272 42.6747C92.7579 42.8453 92.7923 43.0171 92.8254 43.1888C92.9886 44.06 93.0266 44.9484 93.1518 45.8257L93.2365 45.9018C93.3751 45.9877 93.5211 46.0662 93.6696 46.1411C94.1052 46.3558 94.5641 46.5387 95.0525 46.5902C95.6783 46.8368 96.3629 46.8282 97.0255 46.8638C98.3066 46.8859 99.5876 46.8712 100.87 46.8736C100.982 46.8736 101.207 46.8749 101.319 46.8749C101.491 46.8749 101.663 46.8773 101.837 46.881C102.025 45.4834 102.245 44.0907 102.443 42.6956C102.467 42.5005 102.494 42.3066 102.524 42.114C102.572 41.79 102.621 41.4661 102.667 41.1434C102.709 40.8452 102.762 40.5495 102.822 40.255L102.832 40.1912C102.869 39.9507 102.886 39.7077 102.919 39.4672C102.993 38.8856 103.087 38.3052 103.171 37.7248C103.204 37.4905 103.238 37.2573 103.274 37.0242C103.363 36.4033 103.452 35.7812 103.545 35.1603C103.587 34.8671 103.631 34.5738 103.674 34.2806C103.691 34.1419 103.709 34.0045 103.73 33.8683C104.407 33.8842 105.085 33.8609 105.762 33.867C105.834 33.867 105.98 33.867 106.053 33.867C106.168 33.867 106.4 33.8683 106.515 33.8683C106.915 33.867 107.317 33.8658 107.719 33.8769C108.693 33.8928 109.668 33.8621 110.643 33.8683C110.784 33.867 110.927 33.867 111.071 33.867C111.056 33.975 111.021 34.1885 111.005 34.2965C110.984 34.4155 110.968 34.5358 110.955 34.6573C110.948 34.7149 110.934 34.8303 110.927 34.8879C110.724 36.0205 110.571 37.1616 110.395 38.2991C110.351 38.585 110.305 38.8709 110.265 39.1568C110.222 39.4341 110.178 39.709 110.141 39.9875C110.127 40.0881 110.098 40.2906 110.084 40.3912C110.064 40.5041 110.046 40.617 110.028 40.7323C109.974 41.0587 109.918 41.3863 109.875 41.7164C109.846 41.9164 109.812 42.1152 109.787 42.3164C109.641 43.2858 109.491 44.2539 109.347 45.2245C111.359 46.2564 113.614 46.6933 115.856 46.8196C116.037 45.195 116.25 43.5729 116.437 41.9483C116.454 41.7642 116.474 41.5802 116.496 41.3961C116.519 41.1974 116.549 40.9986 116.578 40.801C116.612 40.5335 116.64 40.2673 116.664 39.9998C116.897 38.2561 117.091 36.5076 117.307 34.7628C117.322 34.6094 117.339 34.4572 117.358 34.3051C117.374 34.1554 117.389 34.0069 117.41 33.8597C118.069 33.8744 118.729 33.867 119.39 33.8683C119.548 33.867 119.709 33.867 119.871 33.8683C120.101 33.8683 120.333 33.8683 120.567 33.8695C120.743 33.8683 120.92 33.8683 121.1 33.8683C122.153 33.867 123.206 33.8695 124.258 33.867C124.354 33.867 124.546 33.867 124.641 33.867C124.618 34.1431 124.596 34.4204 124.582 34.6977C124.581 34.7395 124.577 34.8217 124.575 34.8634C124.365 36.407 124.153 37.9543 124.049 39.509L124.042 39.5752C124 39.8182 123.96 40.0611 123.938 40.3078C123.909 40.5593 123.878 40.8108 123.852 41.0636C123.831 41.2268 123.814 41.39 123.798 41.5544C123.633 42.9324 123.501 44.3128 123.323 45.6883C126.019 46.4564 128.816 46.7988 131.613 46.8687C131.352 44.6956 130.994 42.5361 130.608 40.3826C130.511 39.7912 130.403 39.2022 130.287 38.6157C130.028 37.3224 129.812 36.0193 129.497 34.7382C129.379 34.0855 129.219 33.44 129.072 32.7946C129.04 32.6191 128.98 32.4375 129.051 32.2658C129.194 32.1332 129.391 32.0927 129.575 32.04C129.684 32.013 129.796 31.986 129.911 31.9602C130.104 31.9111 130.299 31.8596 130.497 31.8093C131.903 31.4436 133.309 31.0755 134.716 30.7123C134.874 30.6694 135.032 30.6277 135.193 30.5859C135.402 30.5295 135.617 30.4743 135.832 30.4203C136.013 30.3724 136.196 30.327 136.38 30.2816C136.497 30.8755 136.621 31.4682 136.773 32.0559C136.783 32.1026 136.801 32.1983 136.811 32.2449C136.856 32.5222 136.905 32.7995 136.967 33.0731C136.994 33.2069 137.023 33.3406 137.055 33.4756C137.076 33.5725 137.117 33.7664 137.136 33.8621C137.448 35.4561 137.733 37.0549 138.023 38.6525C138.107 39.1727 138.172 39.6967 138.277 40.2133C138.656 42.5127 138.939 44.8269 139.264 47.1338C137.467 49.9142 135.678 52.7008 133.872 55.4752C131.005 55.4335 128.174 54.8089 125.492 53.8162C123.887 53.1978 122.353 52.4125 120.845 51.5891C119.917 52.8849 118.974 54.1721 118.004 55.4359C114.463 55.4641 111.048 53.9438 108.398 51.6505C108.199 52.9205 107.994 54.1892 107.82 55.4641C104.299 55.4654 100.778 55.4617 97.2575 55.4654C96.0218 55.4654 94.7457 55.2531 93.6806 54.5966C92.4266 53.8174 91.3898 52.7475 90.4179 51.648C90.3934 51.7401 90.3443 51.9253 90.3198 52.0174C90.0658 52.2358 89.9173 52.5389 89.7406 52.8149C89.1835 53.6984 88.6191 54.577 88.0633 55.4604C81.9956 55.4678 75.9291 55.4629 69.8614 55.4641C69.7215 55.4629 69.5828 55.4629 69.4466 55.4641C69.1816 55.4629 68.9178 55.4629 68.6552 55.4641C68.5656 55.4641 68.3865 55.4641 68.2981 55.4641C64.2526 55.4654 60.212 55.4678 56.1676 55.4703C55.9443 55.4666 55.7235 55.4629 55.5026 55.4617C55.3149 55.4592 55.1283 55.4592 54.9431 55.4604C54.851 55.4604 54.667 55.4604 54.575 55.4604C54.4694 55.4604 54.2559 55.4604 54.1492 55.4604C53.9872 55.4604 53.8265 55.4604 53.6669 55.4617C51.0583 55.4727 48.4508 55.4506 45.8434 55.4666C44.809 55.4948 43.75 55.4163 42.7893 55.0015C42.6751 54.9549 42.5635 54.9083 42.453 54.8604C41.8027 54.5598 41.161 54.215 40.6309 53.7279C40.4186 53.5401 40.2039 53.3573 39.9965 53.1671C39.7388 52.9278 39.5069 52.6616 39.2701 52.4039C38.8971 51.999 38.5216 51.5977 38.1719 51.1744C37.4234 52.2456 36.7584 53.372 36.0626 54.4764C35.8491 54.8028 35.627 55.1242 35.4246 55.4592C34.2626 55.4813 33.1006 55.4543 31.9398 55.4629C31.7422 55.4629 31.5459 55.4641 31.352 55.4654C29.4158 55.4617 27.4807 55.4654 25.5445 55.4629C25.4058 55.4617 25.2672 55.4617 25.131 55.4629C24.8659 55.4629 24.6033 55.4629 24.3407 55.4641C24.0659 55.4629 23.7935 55.4629 23.5211 55.4641C21.1063 55.4641 18.6915 55.4641 16.2767 55.4641C16.003 55.4641 15.7294 55.4641 15.457 55.4641C14.5195 55.4433 13.5796 55.4261 12.6458 55.3316C12.371 55.3071 12.0974 55.2837 11.8237 55.2543C10.0126 55.0175 8.22852 54.5254 6.60024 53.6886C6.48244 53.6309 6.36464 53.5733 6.24807 53.5168C5.96708 53.3733 5.7045 53.1978 5.437 53.0346C4.91183 52.7192 4.44188 52.3241 3.96824 51.9389C3.65044 51.648 3.35227 51.3376 3.06391 51.021C2.90194 50.8333 2.75102 50.6382 2.60255 50.4419C1.84424 49.5204 1.33379 48.4295 0.899417 47.3264C0.212276 45.4454 0.0147245 43.4306 0 41.4403C0.0269948 39.9949 0.251541 38.5617 0.565663 37.153C0.716588 36.3874 0.968133 35.6487 1.16569 34.8953C1.19145 34.8008 1.24176 34.6106 1.26753 34.5161C2.3191 34.2818 3.37558 34.0744 4.42593 33.829L4.54126 33.8094C5.26399 33.6805 5.97935 33.5063 6.69963 33.3652C6.75607 33.3799 6.86773 33.4118 6.92417 33.4278C7.06283 33.5689 7.20026 33.7137 7.34014 33.8572C7.32173 33.9591 7.28369 34.1603 7.26529 34.2609C6.92172 35.7763 6.57079 37.3101 6.61373 38.8746C6.64564 40.0219 6.49103 41.2023 6.86527 42.3127C7.23216 43.6514 8.13526 44.8441 9.35739 45.5116C9.52672 45.6061 9.69973 45.6957 9.8752 45.7816C10.4715 46.0859 11.1194 46.265 11.7673 46.4233C11.9268 46.4589 12.0875 46.4883 12.2507 46.5215C12.4483 46.5558 12.6458 46.589 12.8446 46.6221C12.987 46.6454 13.1305 46.6687 13.2753 46.6896C14.2459 46.7865 15.2214 46.8381 16.1969 46.8626C16.3846 46.8663 16.5736 46.8712 16.7638 46.8736C18.3319 46.8761 19.9013 46.8736 21.4695 46.8749C21.6364 46.8736 21.8045 46.8736 21.9738 46.8749C22.3321 46.8749 22.6916 46.8749 23.0511 46.8749C23.4818 46.8736 23.9113 46.8736 24.3432 46.8749C24.6033 46.8736 24.8647 46.8749 25.1273 46.8749C25.2929 46.8736 25.461 46.8736 25.6291 46.8749C25.8905 46.8736 26.1531 46.8724 26.4169 46.8724C26.6917 46.8712 26.9678 46.8736 27.2439 46.8736C29.3679 46.8798 31.4907 46.8663 33.6147 46.881C33.6012 45.9435 33.6135 45.0049 33.6049 44.0674C33.6073 43.6453 33.611 43.2232 33.6086 42.8023C33.6073 42.5189 33.6073 42.2367 33.6086 41.9557C33.6073 41.4771 33.6086 40.9986 33.6098 40.5213C33.6086 40.2624 33.6061 40.0035 33.6061 39.7458C33.6061 39.4832 33.6061 39.2206 33.6073 38.9592C33.6098 37.5297 33.6086 36.099 33.6086 34.6695C33.6073 34.4008 33.6073 34.1321 33.6086 33.8646C33.6073 33.6916 33.6073 33.5198 33.6073 33.3492C34.9325 33.3443 36.2565 33.3492 37.5817 33.3455C38.1523 33.3468 38.7216 33.3455 39.2922 33.3468C39.367 33.3468 39.518 33.3468 39.5928 33.3468C39.8849 33.3455 40.1793 33.3431 40.4726 33.3455C40.6922 33.3468 40.9119 33.3517 41.1328 33.359C41.1278 33.5308 41.1254 33.7026 41.1254 33.8756C41.1217 34.164 41.1229 34.4536 41.1242 34.7431C41.1242 36.8549 41.1242 38.9654 41.1242 41.0771C41.1229 41.2403 41.1229 41.4035 41.1242 41.5679C41.1229 41.8501 41.1229 42.1324 41.1242 42.4158C41.1242 42.487 41.1242 42.6293 41.1242 42.7005C41.1229 43.6833 41.1266 44.6662 41.1217 45.6491C41.8665 46.1644 42.7034 46.5718 43.6077 46.6969C43.7832 46.7264 43.9586 46.7534 44.1378 46.7779C44.7586 46.8503 45.3857 46.8577 46.0102 46.8687C46.1869 46.8712 46.3661 46.8724 46.5452 46.8736C48.0017 46.8712 49.4582 46.8724 50.9147 46.8724C51.0067 46.8724 51.1908 46.8724 51.2828 46.8724C51.954 46.8724 52.6252 46.8724 53.2976 46.8724C53.6007 46.8712 53.905 46.8712 54.2105 46.8724C54.2976 46.8724 54.4743 46.8724 54.5627 46.8724C54.6584 46.8724 54.851 46.8724 54.9467 46.8724C55.094 46.8724 55.2437 46.8724 55.3934 46.8724C55.4486 46.8724 55.5615 46.8712 55.6179 46.8712C57.2082 46.8687 58.7996 46.8736 60.3911 46.881C60.3874 45.3865 60.3801 43.8932 60.3887 42.3986C60.3874 42.2526 60.3874 42.1078 60.3887 41.9643C60.3874 41.6869 60.3874 41.4109 60.3887 41.1348C60.3874 40.8562 60.3874 40.5777 60.3887 40.3004C60.3887 38.3089 60.3887 36.3174 60.3887 34.3272C60.3874 34.0388 60.3874 33.7529 60.3887 33.4658C60.3887 32.6584 60.3887 31.851 60.3887 31.0436C60.3874 30.7835 60.3874 30.5246 60.3887 30.2669C60.3874 29.9786 60.3874 29.6914 60.3887 29.4043C60.3887 29.316 60.3887 29.1393 60.3887 29.0509C60.3874 28.781 60.3874 28.5122 60.3887 28.2435C60.3887 28.1466 60.3887 27.9515 60.3887 27.8533C60.3874 27.4668 60.3874 27.0803 60.3887 26.6938C60.3874 26.5159 60.3874 26.3392 60.3887 26.1637C60.3887 25.4901 60.3887 24.8176 60.3887 24.144C60.3887 24.0753 60.3887 23.9391 60.3887 23.8704C60.3874 23.7268 60.3874 23.582 60.3887 23.4397C60.3887 23.0298 60.3887 22.62 60.3887 22.2114C60.3788 19.8813 60.4071 17.5499 60.3739 15.2197ZM79.5219 38.547C79.2335 38.5752 78.9476 38.612 78.6641 38.6623C77.8604 38.8108 77.0702 39.0378 76.3082 39.3298C76.1696 39.3813 76.0322 39.4329 75.896 39.4844C75.0677 39.8145 74.2493 40.174 73.4615 40.5924C73.1977 40.7016 72.9425 40.8293 72.6873 40.9569V40.9777C72.2713 41.1716 71.87 41.3961 71.4541 41.5888L71.4529 41.6366C71.1804 41.7716 70.9154 41.9225 70.6577 42.0821C70.4479 42.2084 70.2319 42.3238 70.0405 42.4747C69.6736 42.6489 69.3387 42.8796 68.9939 43.0907C68.8785 43.1594 68.7632 43.2269 68.6503 43.2956V43.3336C68.3669 43.476 68.0969 43.6392 67.8294 43.8073L67.8306 43.8183C67.7767 43.849 67.6687 43.9091 67.6159 43.9398C67.5975 44.9165 67.557 45.9092 67.6355 46.8798L67.8306 46.8847C68.1067 46.8724 68.384 46.8724 68.6638 46.8749C68.7436 46.8749 68.9031 46.8749 68.9828 46.8749C69.2687 46.8736 69.5546 46.8749 69.8417 46.8724C70.2491 46.8761 70.6565 46.8749 71.0639 46.8749C71.1964 46.8736 71.3314 46.8736 71.4664 46.8749C71.8713 46.8749 72.2762 46.8749 72.6836 46.8749C72.9425 46.8736 73.2026 46.8736 73.464 46.8749C75.3671 46.8785 77.2702 46.8687 79.1734 46.8749C79.2605 46.8749 79.436 46.8749 79.5231 46.8749C79.9305 46.8749 80.3378 46.8749 80.7477 46.8749C80.8176 46.8749 80.9575 46.8749 81.0274 46.8761C81.6299 46.8736 82.2336 46.8749 82.8373 46.8749C82.8999 46.8749 83.025 46.8749 83.0889 46.8749C84.1515 46.8663 85.2153 46.892 86.2779 46.8614L86.3405 46.9129C86.3123 46.7448 86.2841 46.5779 86.2583 46.4135L86.2362 46.411C85.9564 44.7275 85.4902 43.06 84.6607 41.5606C84.6116 41.4845 84.5147 41.3311 84.4668 41.255C84.3478 41.0661 84.23 40.8771 84.1147 40.6906L84.0889 40.693C83.4643 39.7985 82.5723 39.0513 81.5268 38.7138C81.4569 38.6979 81.3182 38.666 81.2495 38.65L81.2974 38.6255C80.9599 38.585 80.6225 38.5482 80.2887 38.5052C80.0311 38.5114 79.7771 38.5286 79.5219 38.547Z" fill="#30353E"/>
<path d="M116.165 18.985C116.458 18.7457 116.753 18.5064 117.037 18.2549C117.91 19.2795 118.76 20.3249 119.62 21.3593C119.85 21.6391 120.09 21.9102 120.317 22.1924C120.373 22.4354 120.631 22.4305 120.706 22.201C121.061 21.9164 121.423 21.6391 121.774 21.3482C122.946 20.3715 124.149 19.4328 125.31 18.4426C126.083 19.4611 126.927 20.4267 127.747 21.4096C127.989 21.7102 128.232 22.0133 128.483 22.309C128.553 22.3937 128.626 22.4796 128.699 22.5667C128.833 22.7274 128.967 22.8919 129.102 23.0551C129.337 23.3348 129.574 23.6134 129.801 23.9005C129.462 24.1937 129.112 24.4698 128.772 24.7594C128.7 24.8171 128.632 24.8747 128.566 24.9336C128.473 25.0048 128.385 25.0784 128.299 25.1521C128.078 25.3361 127.856 25.5177 127.637 25.7005C127.003 26.2294 126.368 26.7558 125.734 27.281C125.47 27.4945 125.214 27.7178 124.957 27.9374C124.871 28.0062 124.787 28.0761 124.706 28.1473C124.451 28.335 124.235 28.6307 123.902 28.6626C123.673 28.3841 123.436 28.1141 123.201 27.8442C123.041 27.6614 122.886 27.4773 122.73 27.2957C122.421 26.9362 122.117 26.5717 121.807 26.2159C121.553 25.919 121.297 25.6245 121.039 25.3337C120.895 25.1668 120.759 24.9962 120.624 24.8244C120.575 24.7631 120.477 24.6392 120.428 24.5778C119.955 24.9619 119.506 25.3717 119.052 25.7766C118.494 26.2417 117.938 26.7092 117.393 27.1877C116.96 27.5472 116.533 27.9141 116.105 28.2798C115.968 28.3939 115.834 28.5117 115.701 28.6295C115.617 28.5289 115.533 28.4295 115.451 28.3313C114.898 27.6847 114.381 27.0086 113.794 26.3926C113.499 26.0085 113.185 25.6416 112.873 25.2723C112.672 25.0257 112.461 24.7876 112.256 24.5459C111.894 24.0993 111.52 23.6661 111.146 23.2305C111.18 23.1888 111.247 23.1066 111.28 23.0649C111.475 22.887 111.683 22.7188 111.889 22.5507C111.934 22.5139 112.025 22.4403 112.07 22.4047C112.323 22.1961 112.572 21.9826 112.826 21.774C113.118 21.5298 113.407 21.282 113.699 21.0378C114.002 20.785 114.311 20.5372 114.614 20.2819C115.002 19.958 115.392 19.6341 115.775 19.3015C115.902 19.1948 116.035 19.0905 116.165 18.985Z" fill="#30353E"/>
<path d="M22.2289 58.1729C22.6203 58.6993 23.0522 59.1925 23.4608 59.7054C23.7467 60.0576 24.04 60.4048 24.3271 60.757C24.5909 61.0797 24.8523 61.4049 25.1185 61.7251C25.386 62.0527 25.6572 62.3791 25.9272 62.7068C26.2523 63.146 26.672 63.5338 26.9444 64.0013C25.7897 65.0798 24.5222 66.0308 23.3258 67.0664C23.1737 67.1928 23.0252 67.3216 22.8743 67.4505C22.2571 67.9646 21.6411 68.48 21.0276 69.0002C20.3245 68.1388 19.5956 67.2983 18.8827 66.4443C18.7747 66.3142 18.668 66.1866 18.5612 66.0602C17.7588 65.1056 16.9526 64.1534 16.1562 63.1951C17.1526 62.3558 18.1882 61.5607 19.1625 60.6969C19.1637 60.6576 19.1674 60.5766 19.1699 60.5361C19.4607 60.5361 19.6607 60.3005 19.8766 60.1398C20.6533 59.476 21.4656 58.8526 22.2289 58.1729Z" fill="#30353E"/>
</svg>
